# xmcd
#
# Track frame offsets: 
#        150
#        22602
#        42665
#        64407
#        80567
#
# Disc length: 1336 seconds
#
# Revision: 0
# Processed by: cddbd v1.5.2PL0 Copyright (c) Steve Scherf et al.
# Submitted via: ExactAudioCopy v0.99pb5
#
DISCID=3a053605
DTITLE=Wu-Tang Clan - Careful 
DYEAR=2001
DGENRE=RAP
TTITLE0=Careful (Click, Click) Featuring Curse (Explicit Version)
TTITLE1=Careful (Click, Click) Featuring Curse (Instrumental)
TTITLE2=Careful (Click, Click) Featuring Curse (Alles Real Mix)
TTITLE3=I Can't Go To Sleep Featuring Isaac Hayes (Explict Version)
TTITLE4=I Can't Go To Sleep Featuring Isaac Hayes (The Live Instrument
TTITLE4=al)
EXTD=
EXTT0=
EXTT1=
EXTT2=
EXTT3=
EXTT4=
PLAYORDER=
